#define button_open_mask_width 16
#define button_open_mask_height 16
static unsigned char button_open_mask_bits[] = {
   0x00, 0x00, 0xfe, 0x7f, 0x02, 0x40, 0x82, 0x41, 0x82, 0x41, 0x82, 0x41,
   0x82, 0x41, 0xfa, 0x5f, 0xfa, 0x5f, 0x82, 0x41, 0x82, 0x41, 0x82, 0x41,
   0x82, 0x41, 0x02, 0x40, 0xfe, 0x7f, 0x00, 0x00 };
