#define button_stop_width 16
#define button_stop_height 16
static unsigned char button_stop_bits[] = {
   0x00, 0x00, 0xfe, 0x7f, 0xfe, 0x7f, 0xfe, 0x7f, 0xfe, 0x7f, 0xfe, 0x7f,
   0xfe, 0x7f, 0xfe, 0x7f, 0xfe, 0x7f, 0xfe, 0x7f, 0xfe, 0x7f, 0xfe, 0x7f,
   0xfe, 0x7f, 0xfe, 0x7f, 0xfe, 0x7f, 0x00, 0x00 };
