#define marker_width 16
#define marker_height 21
static unsigned char marker_bits[] = {
   0x80, 0x01, 0xc0, 0x03, 0xe0, 0x07, 0xf0, 0x0f, 0xf0, 0x0f, 0xf8, 0x1f,
   0xfc, 0x3f, 0xfc, 0x3f, 0x3e, 0x7c, 0x1e, 0x78, 0x0f, 0xf0, 0x07, 0xe0,
   0x07, 0xe0, 0x07, 0xe0, 0x07, 0xe0, 0x0f, 0xf0, 0x1e, 0x78, 0x3e, 0x7c,
   0xfc, 0x3f, 0xf8, 0x1f, 0xe0, 0x07 };
