#define textfile_mask_width 16
#define textfile_mask_height 16
static unsigned char textfile_mask_bits[] = {
   0x00, 0x00, 0xfc, 0x3f, 0x06, 0x48, 0x06, 0x50, 0xf6, 0x67, 0x06, 0x60,
   0x06, 0x40, 0xe6, 0x4f, 0x06, 0x40, 0x06, 0x40, 0xe6, 0x4f, 0x06, 0x40,
   0x06, 0x40, 0xe6, 0x4f, 0x06, 0x40, 0xfc, 0x3f };
