#define volume_icon_mask_width 16
#define volume_icon_mask_height 16
static unsigned char volume_icon_mask_bits[] = {
   0x00, 0x00, 0x00, 0x10, 0x40, 0x20, 0x60, 0x20, 0x60, 0x44, 0x70, 0x48,
   0x78, 0x89, 0x7e, 0x92, 0x7e, 0x92, 0x78, 0x89, 0x70, 0x48, 0x60, 0x44,
   0x60, 0x20, 0x40, 0x20, 0x00, 0x10, 0x00, 0x00 };
