#define balloon_mask_width 16
#define balloon_mask_height 16
static unsigned char balloon_mask_bits[] = {
   0x00, 0x00, 0xf0, 0x0f, 0xf8, 0x1f, 0xfc, 0x3f, 0xfe, 0x7f, 0xfe, 0x7f,
   0xfe, 0x7f, 0xfe, 0x7f, 0xfe, 0x7f, 0xfe, 0x7f, 0xfc, 0x3f, 0xf8, 0x1f,
   0xf0, 0x0f, 0x00, 0x0e, 0x00, 0x0c, 0x00, 0x00 };
