#define balloon_width 16
#define balloon_height 16
static unsigned char balloon_bits[] = {
   0x00, 0x00, 0xf0, 0x0f, 0xf8, 0x1f, 0x7c, 0x3e, 0x7e, 0x7e, 0xfe, 0x7f,
   0x7e, 0x7e, 0x7e, 0x7e, 0x7e, 0x7e, 0x7e, 0x7e, 0x7c, 0x3e, 0xf8, 0x1f,
   0xf0, 0x0f, 0x00, 0x0e, 0x00, 0x0c, 0x00, 0x00 };
