#define button_close_width 16
#define button_close_height 16
static unsigned char button_close_bits[] = {
   0x00, 0x00, 0x06, 0x60, 0x0e, 0x70, 0x1c, 0x38, 0x38, 0x1c, 0x70, 0x0e,
   0xe0, 0x07, 0x40, 0x02, 0x40, 0x02, 0xe0, 0x07, 0x70, 0x0e, 0x38, 0x1c,
   0x1c, 0x38, 0x0e, 0x70, 0x06, 0x60, 0x00, 0x00 };
