#define button_pause_width 16
#define button_pause_height 16
static unsigned char button_pause_bits[] = {
   0x00, 0x00, 0x60, 0x0c, 0x60, 0x0c, 0x60, 0x0c, 0x60, 0x0c, 0x60, 0x0c,
   0x60, 0x0c, 0x60, 0x0c, 0x60, 0x0c, 0x60, 0x0c, 0x60, 0x0c, 0x60, 0x0c,
   0x60, 0x0c, 0x60, 0x0c, 0x60, 0x0c, 0x00, 0x00 };
