#define drag_width 14
#define drag_height 14
static unsigned char drag_bits[] = {
   0xc0, 0x00, 0xe0, 0x01, 0xf0, 0x03, 0xc0, 0x00, 0xc4, 0x08, 0xc6, 0x18,
   0xff, 0x3f, 0xff, 0x3f, 0xc6, 0x18, 0xc4, 0x08, 0xc0, 0x00, 0xf0, 0x03,
   0xe0, 0x01, 0xc0, 0x00 };
