#define folder_width 16
#define folder_height 16
static unsigned char folder_bits[] = {
   0x00, 0x00, 0x3f, 0x00, 0xf1, 0x7f, 0x01, 0x40, 0xfd, 0xff, 0x07, 0x80,
   0x03, 0x80, 0x03, 0x80, 0x03, 0x80, 0x03, 0x80, 0x01, 0xc0, 0x01, 0x40,
   0x01, 0x40, 0x01, 0x40, 0xfe, 0x7f, 0x00, 0x00 };
