#define zoom_out_mask_width 16
#define zoom_out_mask_height 16
static unsigned char zoom_out_mask_bits[] = {
   0xe0, 0x01, 0xf8, 0x07, 0x1c, 0x0e, 0x0e, 0x1c, 0x07, 0x38, 0x03, 0x30,
   0xf3, 0x33, 0xf3, 0x33, 0x03, 0x30, 0x07, 0x38, 0x0e, 0x1c, 0x1c, 0x3e,
   0xf8, 0x7f, 0xe0, 0xf9, 0x00, 0xf0, 0x00, 0xe0 };
